/* XPM */
static char *_e5d355f9702497590ee02fb0a49aa03TaeabJ29zkmvdsnv[] = {
/* columns rows colors chars-per-pixel */
"40 40 61 1 ",
"  c #020202",
". c #040404",
"X c gray3",
"o c #0E0E0E",
"O c #101010",
"+ c #161616",
"@ c #191919",
"# c #1D1D1D",
"$ c #202020",
"% c gray16",
"& c #2F2F2F",
"* c gray20",
"= c #343434",
"- c gray23",
"; c #444444",
": c #494949",
"> c gray31",
", c gray32",
"< c gray33",
"1 c #585858",
"2 c gray36",
"3 c #606060",
"4 c gray40",
"5 c #6A6A6A",
"6 c #6D6D6D",
"7 c #727272",
"8 c gray46",
"9 c #797979",
"0 c gray49",
"q c #838383",
"w c #848484",
"e c #898989",
"r c gray56",
"t c gray57",
"y c #979797",
"u c #989898",
"i c #9F9F9F",
"p c #A0A0A0",
"a c #A5A5A5",
"s c gray67",
"d c #AFAFAF",
"f c #B1B1B1",
"g c #B6B6B6",
"h c gray73",
"j c gray74",
"k c #C1C1C1",
"l c #C6C6C6",
"z c #C8C8C8",
"x c #CECECE",
"c c #D2D2D2",
"v c #D5D5D5",
"b c gray85",
"n c gainsboro",
"m c #E1E1E1",
"M c #E7E7E7",
"N c gray92",
"B c gray93",
"V c gray94",
"C c gray96",
"Z c gray98",
"A c #FEFEFE",
/* pixels */
"CBBAAZBBZAABVBnlgaasjkxmZAZBBZAABBCAAVBV",
"CBBZAZBBZAAmi1%o.   Xo@=4sMBBCAABBCAAVBV",
"CZZVVCZZCVs&          .   &uCCVVZZCVVCZZ",
"CAAVBVAAN7X.         .X@+..o3MBBAAZBBZAA",
"CZZVVCZV5X        .+>ylbvf3O.rBVZACVVZAZ",
"CBBZAZVwX       .O2kCAAAAACs@%bZBBCAAVBV",
"CBBAAZz+        &fZZAAAAAAAZ0.rABBCAAVBV",
"CCCCCV,.       XjZAAAAAAAAAAjo-BCCCCCCCC",
"CAAVBkX       .:VAAAAAAAAAAAN$OhAAZBBZAA",
"CAAVB7       .OkAAAAAAAAAAAAA>.0AAZBBZAZ",
"CVVZM*.      orZAAAAAAAAAAAAAw :CVCZZCVV",
"CBBAn@      OwCAAAAAAAAAAAAAAdX#MBCAAVBV",
"CBVZcO     OuMkglNZAAAAZCMvMCx@OxBCAAVVV",
"CAAVzo    .-l5<448xAAAAnq,;,rb&ojZZBBZAZ",
"CAAVzo    .-cNblzlnAAAZghbnBzb:XfAZBBZAA",
"CCCCv#O    >CckNNf:VAAVfcmb5nA3XgCCCCCZC",
"CBBZmrd$.  6Zmglbf7CAABabMb,cA9XjBCAAVBV",
"CBBACMZf@  uAZBwuazAAAZf777tVArozBCAAVBV",
"CZZVNNAAq .xAAAAAAAAAAAAAZAAAAi+NZCVVCZZ",
"CAAVNmAAm=*VAAAAAAZAAAACZAAAAAa4CAZBBZAA",
"CZZVVMAAZe9ZAAAAAlmAAAZkNAAAAAzxMZCVVZAZ",
"CBBZAVBAAnvAAAAAZsvsMZCvnAAAAAACMBVAAVBV",
"CBBAAZnCAAAAAAAAAVjq5CxtCZZAAAZBBBVAAVBV",
"CCCZZCBvizAAAAAnZAZbnNZZZhfBAAmBCCCZZCCC",
"CAAVBVAB;4AAAAmgMZAjNjAAZbxhZZtMAAZBBZAA",
"CAAVBVAAf;AAAAnvylVvCjVVkahBZBfVAAZBBZAA",
"CVVZZCVVN6ZAAAACzxpgljdavBlAABBZVVCZZCVV",
"CBBAAZBBCxNZAAAAVZCBNNBCAAZAABAABBCAAVBV",
"CVVZAZVVZZVCAAAAAAAAAAAAAAAACBAZVVCAAVVV",
"CAAVBVAAVBBVZAAAAAAAAAAAAAAANVBBAAZBBZAZ",
"CAAVBVAAVBBCBAAAAAAAAAAAAAACCCBBAAZBBZAA",
"CCCCCCCCCCCCVVAAAAAAAAAAAAZNCCCCCCCCCCCC",
"CBBAAZBBZAABBmCAAAAAAAAAAABNBZAABBVAAVBV",
"CBBAAZBBZAABBCVCZMZZAAZVNVBBBCAABBVAAVBV",
"CZZVVCZZCVVZZCVBVcscNNxpnMVZZCVVZZCVVCZZ",
"CAAVBVAAVBBAAZBBVVMkdfxnmBVAACBBAAZBBZAA",
"CAAVBVAACBVAACBVZZVuyg0mVBVAACVVAACBBZAZ",
"CBBZAZBBZAABBCAAVBm%%x97CAZBBCAABBCAAVBV",
"CBBAAZBBZAABBVAAVBu9<cM1iZZBBZAABBVAAVBV",
"CVCCCCCCCCCCCCZZCm:m<vVm1tCCVCZCCCCCZCCC"
};
