/* XPM */
static char *_5dff04d024e4c3fb719a75762a4a154QTI637VqaMvphCTg[] = {
/* columns rows colors chars-per-pixel */
"40 40 190 2 ",
"   c #040302",
".  c #0E0E0C",
"X  c #120404",
"o  c #11110E",
"O  c #151412",
"+  c #181715",
"@  c #1A1916",
"#  c #1D1C19",
"$  c #390808",
"%  c #201F1D",
"&  c #22211E",
"*  c #31201F",
"=  c #252421",
"-  c #282723",
";  c #2B2A25",
":  c #2E2D29",
">  c #362726",
",  c #352927",
"<  c #322F2B",
"1  c #34322D",
"2  c #363530",
"3  c #393732",
"4  c #3C3A34",
"5  c #3D3C3A",
"6  c #450707",
"7  c #590A0A",
"8  c #5A1313",
"9  c #690807",
"0  c #6B0809",
"q  c #780908",
"w  c #7A0909",
"e  c #691818",
"r  c #791413",
"t  c #721A19",
"y  c #791918",
"u  c #462726",
"i  c #522626",
"p  c #5C2928",
"a  c #403430",
"s  c #403D37",
"d  c #413F38",
"f  c #593835",
"g  c #632828",
"h  c #7E2524",
"j  c #63322E",
"k  c #7A3B37",
"l  c #44433C",
"z  c #4B443E",
"x  c #5B433E",
"c  c #6C403B",
"v  c #3F3F59",
"b  c #26256C",
"n  c #22237A",
"m  c #444343",
"M  c #484741",
"N  c #4C4A42",
"B  c #514E46",
"V  c #524F48",
"C  c #55524A",
"Z  c #59564D",
"A  c #5B584F",
"S  c #4F4D54",
"D  c #595750",
"F  c #5D5A51",
"G  c #5D5F5E",
"H  c #694A45",
"J  c #744A44",
"K  c #615D54",
"L  c #6E5850",
"P  c #636056",
"I  c #666259",
"U  c #6A665C",
"Y  c #6D695E",
"T  c #76655D",
"R  c #5D5B60",
"E  c #424174",
"W  c #656464",
"Q  c #6E6B61",
"!  c #726D63",
"~  c #766E65",
"^  c #757266",
"/  c #787267",
"(  c #7A766A",
")  c #7D796D",
"_  c #8D0706",
"`  c #800A0A",
"'  c #8C0C0B",
"]  c #930706",
"[  c #9A0A09",
"{  c #831514",
"}  c #8D1C1B",
"|  c #951212",
" . c #981212",
".. c #A20705",
"X. c #AB0606",
"o. c #A70D0E",
"O. c #AC0909",
"+. c #B10505",
"@. c #B40B0B",
"#. c #BB0B0B",
"$. c #832E2C",
"%. c #803D39",
"&. c #943A35",
"*. c #C50504",
"=. c #CC0606",
"-. c #CC0907",
";. c #CD0709",
":. c #C40A0A",
">. c #CC0A09",
",. c #D40605",
"<. c #DC0606",
"1. c #D40907",
"2. c #DB0807",
"3. c #D40708",
"4. c #DB0708",
"5. c #D30908",
"6. c #DA0909",
"7. c #DF041D",
"8. c #E40605",
"9. c #EB0504",
"0. c #E20807",
"q. c #F40302",
"w. c #FC0000",
"e. c #E5071A",
"r. c #D1052C",
"t. c #BC0440",
"y. c #A20E5D",
"u. c #8D056E",
"i. c #930569",
"p. c #887068",
"a. c #817C6F",
"s. c #827E72",
"d. c #887F76",
"f. c #858175",
"g. c #898477",
"h. c #8A8679",
"j. c #8E897C",
"k. c #918C7E",
"l. c #0E1096",
"z. c #0D0DA4",
"x. c #0608BB",
"c. c #2808BD",
"v. c #640596",
"b. c #690492",
"n. c #68139E",
"m. c #5606A6",
"M. c #0F0FC7",
"N. c #2E05CF",
"B. c #0304E8",
"V. c #1204E8",
"C. c #1616EB",
"Z. c #0103F6",
"A. c #0B03F2",
"S. c #0001FD",
"D. c #1718F0",
"F. c #191AF4",
"G. c #211AE6",
"H. c #2D2FEC",
"J. c #938E80",
"K. c #9D8C81",
"L. c #969182",
"P. c #999385",
"I. c #9B9689",
"U. c #9E998A",
"Y. c #9A9C9B",
"T. c #A29C8D",
"R. c #A6A192",
"E. c #AAA495",
"W. c #AEA897",
"Q. c #AEA999",
"!. c #B3AC9C",
"~. c #B7B19F",
"^. c #A5A4A3",
"/. c #B3AEA0",
"(. c #B7B1A1",
"). c #BAB3A2",
"_. c #BFB8A7",
"`. c #C0B9A7",
"'. c #C4BDAB",
"]. c #C7C0AE",
"[. c #C9C2AF",
"{. c #CBC3B1",
"}. c #D2CBB7",
"|. c #D4CCB9",
" X c #D9D1BE",
".X c #DED6C2",
"XX c #D7D7D6",
"oX c #E2DAC6",
"OX c #E6DEC9",
"+X c #E9E0CC",
/* pixels */
"s.C B Q F I B l 5 C z ; ; & # # @ o @ ; @ = - 1 # # = 2 l N 1 @ O . . . . . O o ",
"k.z j.h./ d ; 4 l C Z l 1 O @ & O O + @ = % & - ; # # O O + # # O . . . . . o O ",
"f.h.f.U Y C & 4 C N : B l & # l 4 ; @ O # O @ & + ; & o . o @ @ @ o . . # O O + ",
"! R.U l 4 & # - l F 4 z 3 ; O & < & O # & # # @ o o o . @ O o @ @ O @ - & ; 1 Z ",
"!.J.C C d - @ ; z / U M 1 C 3 D 3 & 1 + @ O O # # . O O O # # & @ o . O O = z @ ",
"|.I.f.Z 4 & - l f.R.! F 1 < i y t r 8 * # & = @ O O @ # O @ @ O + O O O O & 3 O ",
"U.(.) C d ; V ) ) E.j.V e @.9.0.<.9.9.>.@.8 , M & O # # @ # @ @ + : # + # o ; @ ",
") W./ 4 4 F ^ L.I.h.H { 4.9.1.o.8.q.w.w.q.4.o.8 3 # @ O & @ @ @ & - # o O @ - # ",
"P.~.K z ^ (.U.s.! j @.@.8.9.6.9.8.2.4.:.<.q.w.9.[ , : O 4 - @ @ # # ; # O O . + ",
"T.U.Z Z F U.(.J.j <.5.2.w.w.1.w.w.w.3.>.9.w.w.w.9.' 2 & ; = # # # O + O @ # @ . ",
"k.J.A K Q {.).! [ >.8.<.q.0.<.w.q.,.9.q.1.w.w.w.w.*.- & - 1 % & . O # O & # @ . ",
"a.I A h.R.Q.{.p >.w.q.:.6.>.-.5.;.q.w.w.0.5.9.0.1.,., 1 @ ; - & O O @ + # O # - ",
"I s.! !.R.E.^ g @.>.5.0.q.2.q.:.2.w.w.w.9.5.#.9.q.q.7 D s < 4 & O # @ o = ; l B ",
") ) R.{. XQ.: Y...5.w.9.q.1.5.q.<.<.9.:.O.| h $ :.2.:.u 1 - 4 ; - = @ # < 4 : = ",
") ( T..X}.s.^.W X.0.9.9.8.>.0.w.9.:.6 > ^.G Y.` q.w.q.*.> 4 d 3 ; + & ; : 4 3 : ",
"F P.U..X.X~ q ' 2.1.#.1.@.#.<.5.#.9.$ W XXm p <.<.1.<.q.[ a ; : # : 1 : 4 F 4 1 ",
"j.R.!. X.XP. .2.0.>.9.8.9.<.q.9.5.8...$ i 0 =.5.q.w.8.>.#.O.a 3 ; = ; ; : 3 & 1 ",
"T.R.W..XOX}.J q.>.0.2.@.4.@.2.8.:.1.1.:.8.1.w.q.-.5.9.q.q.:.' 5 & 1 3 4 N F 3 B ",
"P.! I.}.oXOX/.r 5.9.q.4.w.9.8.w.9.8.w.<.9.8.0.9.>.>.w.w.w.q.:.i z C 3 4 Z N D F ",
"T.s.I.(.!.|.'.d. .8.6.:.2.1.#.1.6.:.8.<.>.1.@.-.w.9.,.w.9.5.4.[ K P.C ^ ^ l U ! ",
"P.h.!.T.T.J.I.R.P.t :.0.q.w.5.q.w.5.q.q.:.w.9.1.w.w.8.1.1.w.w.q.e ) ) P.I.! s.) ",
"k.k.E.j.^ s.k.).).j.U x $.#.:.>.9.0.9.w.2.q.8.>.0.1.2.>.1.w.w.w.,.z J.L.I ) J.j.",
"s.) Y ( ^ g.f.'.Q.s.F ) R.P.d.T f { :.6.5.>.9.q.:.q.w.w.4.9.w.w.9.` k f.F J.E.`.",
"L.T.R.T.^ j.R.'.!.h./ f.T.{.R.E.f.I.f @.9.<.w.w.<.q.w.w.w.5.w.9.@._ 8.u / !.{.).",
"T.h.k.E.h.!.}.!.I.T.j.j.) I./ U Q.U.!.h.&.} 8.w.q.2.w.q.9.<.>.O.q 9.w.:.J [.}.].",
"|.{.Q I g.f.J.!.f./ ) f.V I.j.Q j.E.!.[.U t q ,.0.#.9.5.:.[ 0 X.9.w.w.w.<.%.!.{.",
"|.OX`.Y I s.g.U ) f.) U h.k.j.L.U.!.I.L @.w.q.7 -.2.' 9 _ ,.q.w.w.w.w.w.w.w.| K.",
"OX.XP Z J.W.L.! k./ ) f.R.I.! J.!.(.J =.w.w.w.8.X.+.,.w.w.w.w.w.w.w.w.w.w.w.w.#.",
"+X Xf./ T.f.f.h.! P.s.!.J.W.E._.!.c 0.w.w.w.w.w.w.w.w.w.w.w.w.w.w.w.w.w.w.w.w.w.",
".XL.s.I ! N ! P.f.! I.U.L.!.!.W.p.,.w.w.w.w.w.w.w.w.w.w.w.w.w.w.w.w.w.w.w.w.w.w.",
"j.Y Q l N F j.k.^ / h.P.f.) j.k.| w.w.w.w.w.w.w.w.w.w.w.w.w.w.w.w.w.w.w.w.w.w.w.",
"! f.(.U 3 s l s.U a.U.R./ ) U.v c.u.q.w.w.w.w.w.w.w.w.w.w.w.w.w.w.w.w.w.w.w.w.e.",
"s.^ s.h.P Z C Q j.F U.T.Y f.I.l.Z.S.v.q.w.w.w.w.=.8._ ] X.2.w.w.w.w.w.w.w.w.i.G.",
"J.!.E.C 4 I k.f.h.h.K s.F Q E B.Z.S.V.7.w.w.w.9.] 9 X X q [ 8.w.w.w.w.w.w.t.A.F.",
"Q.'.k.L.^ U k./ U I h.I Q S x.S.S.S.A.r.w.w.w.9...q X X q ' ,.w.w.w.w.w.w.v.S.F.",
"g.Y I Y d.( ^ U B I.j.) h.n B.S.S.S.A.7.w.w.w.9.q ' X   9 [ <.w.w.w.w.w.w.m.S.F.",
"k.^ C 4 K f.! ^ k.!.h.Z R M.S.S.S.S.V.e.w.w.w.w.9.w.0 6 2.q.q.w.w.w.w.w.w.m.S.F.",
"W.! ^ A f.) A U.U.R.) ^ b Z.S.S.S.S.N.q.w.w.w.w.w.w.w.w.w.w.w.w.w.w.w.w.w.b.S.F.",
"!.!.g.A ^ T.! 4 N g.^ f.z.Z.S.S.S.S.v.w.w.w.w.w.w.w.w.w.w.w.w.w.w.w.w.w.w.b.S.F.",
"j.g.P K T.~.K Z N Q U 5 M.C.D.F.F.F.y.w.w.w.w.w.w.w.w.w.w.w.w.w.w.w.w.w.w.n.F.H."
};
