/* XPM */
static char *a443c086d9ee4e7ef191c52002e61bces0EiVgOl3lyYYy74[] = {
/* columns rows colors chars-per-pixel */
"40 40 224 2 ",
"   c #0C0C0E",
".  c #16130E",
"X  c #0C0E12",
"o  c #0F1217",
"O  c #121215",
"+  c #191916",
"@  c #14161B",
"#  c #1B1B1D",
"$  c #231C11",
"%  c #2D2512",
"&  c #352C17",
"*  c #131923",
"=  c #1B1D21",
"-  c #181E29",
";  c #1E2126",
":  c #1A212C",
">  c #1E2A37",
",  c #232325",
"<  c #282726",
"1  c #292A2C",
"2  c #38392D",
"3  c #252C36",
"4  c #2A2D34",
"5  c #313335",
"6  c #32353B",
"7  c #3B3A3F",
"8  c #4E3E0C",
"9  c #543E09",
"0  c #4C3A16",
"q  c #493B2A",
"w  c #57460C",
"e  c #574316",
"r  c #62470B",
"t  c #6C530C",
"y  c #72530D",
"u  c #6C5113",
"i  c #6F5A19",
"p  c #75620D",
"a  c #59482A",
"s  c #584E39",
"d  c #6A552B",
"f  c #2A3546",
"g  c #353A44",
"h  c #263B58",
"j  c #354154",
"k  c #304362",
"l  c #464546",
"z  c #464B55",
"x  c #4B4D53",
"c  c #4F545C",
"v  c #55565B",
"b  c #53565D",
"n  c #60535E",
"m  c #716956",
"M  c #4D586D",
"N  c #585B67",
"B  c #605B68",
"V  c #5C626C",
"C  c #4D617A",
"Z  c #5A6475",
"A  c #62666C",
"S  c #686A6A",
"D  c #746F6A",
"F  c #626976",
"G  c #6E737B",
"H  c #73747B",
"J  c #815F15",
"K  c #926C16",
"L  c #8E7114",
"P  c #AD7D05",
"I  c #A8780A",
"U  c #90713B",
"Y  c #847353",
"T  c #B48202",
"R  c #BA8701",
"E  c #B88509",
"W  c #BA9107",
"Q  c #B99133",
"!  c #C58C01",
"~  c #CB8D05",
"^  c #C38E08",
"/  c #C69106",
"(  c #CB9401",
")  c #CC980A",
"_  c #D79E06",
"`  c #D39C0C",
"'  c #CB9419",
"]  c #D19511",
"[  c #E09F0C",
"{  c #EB9E17",
"}  c #D7A506",
"|  c #DAA50C",
" . c #CCA511",
".. c #D8A61A",
"X. c #E2A404",
"o. c #E6A80A",
"O. c #EBA917",
"+. c #CC912A",
"@. c #CB973B",
"#. c #EC9C2E",
"$. c #DBA82D",
"%. c #C2A93C",
"&. c #EDA428",
"*. c #E8BE27",
"=. c #ECA338",
"-. c #F3D70F",
";. c #E9CF12",
":. c #AD8F51",
">. c #BCA443",
",. c #898173",
"<. c #998A73",
"1. c #B29370",
"2. c #B3A273",
"3. c #DA9D4D",
"4. c #C99555",
"5. c #D29851",
"6. c #CDAB44",
"7. c #C2A55C",
"8. c #EDA648",
"9. c #E9B147",
"0. c #EFAC5B",
"q. c #F0AB55",
"w. c #EBBC5B",
"e. c #CB9967",
"r. c #CBAE6E",
"t. c #D9B775",
"y. c #E2AE69",
"u. c #F3BA76",
"i. c #5A6A84",
"p. c #5F728F",
"a. c #6D7685",
"s. c #66748B",
"d. c #797B89",
"f. c #677A95",
"g. c #687FA0",
"h. c #788498",
"j. c #6A88AD",
"k. c #7288A8",
"l. c #86888C",
"z. c #848C99",
"x. c #8B9198",
"c. c #9A9697",
"v. c #B1958C",
"b. c #AAA48A",
"n. c #8E8CA2",
"m. c #989DA6",
"M. c #8E9DB5",
"N. c #9DA7B4",
"B. c #A0A4AC",
"V. c #B7B6A8",
"C. c #A7ACB5",
"Z. c #ABB1BC",
"A. c #C49987",
"S. c #D4AB95",
"D. c #ECBF8E",
"F. c #E9B797",
"G. c #CCB4AE",
"H. c #D7B5B2",
"J. c #E0B1B2",
"K. c #EFC98E",
"L. c #DCC5A0",
"P. c #F1D1B1",
"I. c #9D8BC4",
"U. c #A996CE",
"Y. c #92A6C4",
"T. c #AFB8C2",
"R. c #B3B8C3",
"E. c #B6A9D2",
"W. c #ACBAD3",
"Q. c #BCA0EE",
"!. c #CAB9CC",
"~. c #D4B5D9",
"^. c #C2AAE9",
"/. c #CDB4EC",
"(. c #D5BDEA",
"). c #C5A8F6",
"_. c #C7AAFD",
"`. c #C9ACFD",
"'. c #CDB3FB",
"]. c #D1B9F5",
"[. c #D0B7FC",
"{. c #D2BCFB",
"}. c #BBC1CB",
"|. c #B8C5D6",
" X c #C9CBCB",
".X c #C5CBD6",
"XX c #CAD2DD",
"oX c #D8D1D8",
"OX c #E8D3D1",
"+X c #F1E2D0",
"@X c #D4D3E6",
"#X c #D7C4F7",
"$X c #D6C2FA",
"%X c #D9C6FA",
"&X c #DDCCFA",
"*X c #DFD0FA",
"=X c #E2CAE6",
"-X c #E5D9F6",
";X c #E2D4FA",
":X c #E5D9FA",
">X c #E6DAFA",
",X c #E8DEF9",
"<X c #E9DEFA",
"1X c #DEE1E7",
"2X c #E9E5EA",
"3X c #F4EBE7",
"4X c #E9E8F4",
"5X c #EAE1FA",
"6X c #ECE3FA",
"7X c #EDE5FA",
"8X c #EFE8FA",
"9X c #F0EAFA",
"0X c #F2EDFB",
"qX c #F3EEFB",
"wX c #FCF8F3",
"eX c #F6F2FB",
"rX c #F6F3FB",
"tX c #F5F1FC",
"yX c #F8F6FC",
"uX c #F9F6FC",
"iX c #FAF9FC",
"pX c #FCFCFD",
"aX c #FDFDFD",
"sX c #FEFEFD",
/* pixels */
"sXsX`._.tXsX{.`.5XsX;X`.;XsX;X`.;XsX;X`.;XsX&X`.5XsX{.`.tXyX'.'.yXiX'.`.yXsX`.`.",
"tXqX[.[.5XqX;X{.%XqX9X[.{.qXeX'.`.9XsX$X`.5XiX[.[.9X;X&X;X:X{.'.yXiX'.`.eXyX'.`.",
"_.%XsXyX`._.7XsX,X_.'.sXiX`._.8XsX;X`.%XeX7X'.:XsX{.'.tX&X{.iXyX'.'.tXsX'._.yXsX",
"%X&X:X5X&X%X;X,X:X&X%X:X5X%X{.7XtX&X`.{.sXeX_.&X6X,X,X'.:X7X$X;X$X{.9XqX$X{.qXsX",
"&X`.$XiXeX'.`.7XsX;X`.{.iXsX&X`.'.tXiX:X'.%XeX&X'.,X,XyX[.$X%X'.iXyX'.`.eXsX'.'.",
"8X:X[.%XqX6X[.{.7X8X;X$X&X6X&X$X%XqXeX{.`.;XeX:X;X[.%X[.eX5XiXqX&X:X%X$X5X8X{.`.",
"iX$X`.5XiX&X`.;XsXeX'.`.[.iXsXeX'.`.%XyXeX[.$XyX7XiX$X&X;X;X[.,X`.`.yXsX'.`.eXqX",
"%XsX7X`.{.sX9X`.`.7XqX5X%X;X:X;X{.{.,XyX5X[.$X'.7X*XeXyX'.{.'.'.9X:X:X:X&X%X9XsX",
";XqX;X[.;XqX&X'.[.sXsXqX`._.'.iXsXqX`.'.7XiX'.%X[.`.qXeX[.&XeX&XsXiX'.`.qXsX{.$X",
"&X_.:XsX&X`.,XsXeX`.'.%X,X;X;X5XqX:X'.'.qX6X7XsX{.{.%X`.eX8XsXeX{.;X&X&X:X5X$X`.",
"*X`.;XsX;X'.;X&X$X5X6X,X,X9XqX`._.%XiXyX'._.eXeX,XiX&X`.qX5X%XqX`.`.eXsX{._.qX7X",
";XsX:X`.;XsX%X`.[.,X,X7X#X`.`.-X;X%XeXiX[.[.&X`.&XsX:X$X5X,X`.'.;X$X6X6X&X%X8XsX",
"&XsX,X`.&XwXOXP.K.y.3.@.@.$.=.8.q.w.t.H.;XsX,X`.[.;X%XsX$X[.'.'.iXiX'.`.qXsX{.$X",
":X{.&X5X<.d a m S F F Z z L o.O.O.&.=.8.F.+X3X&XtX`.'.sX%X{.qX$XyXiX[.'.7XqX{.`.",
",X).U.V.4 M M.W.W.W.Y.7 < r E ` o.o.O.{ { &.=.q.u.F.J.OX=X$XsXyX{.$X7XtX[._.eX5X",
"#XB d.n 4 F a.a.F N N # < r # g v D Y U :.Q +.+.#.#.=.=.8.0.u.K.S.S.P.P.~.'.qXsX",
"^.S qXE.S A v V F V N 6 l e 4 z Z a.a.v h.h.f.F d.,.<.1.:.4.5.3.8.8.8.0.0.D.].%X",
".Xd.,XE.1X4XC.C. X.XC.l.D Y l.H l x x v T.C.b.d.m.z.n.z.z.M.M.z.z.c.<.2.e.4.~.`.",
"8X).'.}.4X2XB.Z.V.XX1XXXm ,.R.B.v G H 1 V a.<.G .Xm.@XR.C.}.XXT.T.|.B.|.|.N.P.5X",
"&X$X'.T.4X2Xm.h.h.h.d.x 0 s N b 5 5 6 = 3 2 5 : k.f g.p.i.i.Y.k.f.j.C p.f.s.S.sX",
"'.iXeXZ.1Xx.A Z M g 4 j d & # 1 , = ; @ o + = X @ * * - * : 3 : > f h h k k 1.%X",
",X5X5Xd.A b c x b c 6 5 d & O = @ @ @ e R R R R R T T T T P P P P P P I I I e._.",
"sX5X^.7 = < 1 < , < O + K %   @ O O O e / ) ' ) ) ) ) ) ` ` ` | | ....| o.| 0.;X",
":X:X(.Q p w 8 8 w t L  .' %   X $ X O e ' U a ' ^ / / ! ! ( ( ( ` q L } X.} w.sX",
":X`.].b.;.-.-.-.-.;.:.c.7.% $ I u   O e E l < y ! ! ! ! ! ( ( ( E l u _ X.[ t.;X",
":X$X(.9.7.6.%.%.>.2.2...! t } X.u   O e K H l 9 ! ~ ~ ~ ~ ] ' E y H q G.+X3X).`.",
"_.:XwX*.| 6.L.r.} } } ( R W X.) i = = e J N x 0 r.A.S.H.oX2X#Xn.v G Q.'.sXsX'.;X",
"[.%XtX2X/.~.+XOX!.G.v.e u 7.t.K.G.I.U.c.. < N E.;X`.%XsX&X'.yX5X_.%X6X,X%X{.yXsX",
"iXtX`.{.yX:X'.,XiX%X_.,XiXiX'.`.%X:X%X&X X X/.`.;XqX:XsX&X'.&X*X&X&XsXqX_.`.sX:X",
"yXqX'.&XqX$X$XqX;X{.&XsXsX:X_.`.:XsX5X_.;X`.qX9X,XsX;X'.;XqX'.;XsX:X$X;X$X%X%X`.",
"'.&XtX'.8X:X`.8XsX7X'.{.;X*X{.'.yXiX;X,X`._.eXsX%X%X%X_.5XiX9X;X&X%X`.$XsXsX`.%X",
"'.&X5X;X&X%XiX&X'.$X*X$X:XsXsX*X`._.eXsX%X9X{.&X%X`.;X;X:X&XeX;X`.;X:X&XiXiX$XyX",
"iX,X`.qX:X`.qXeX'.`.qXsX,X{.%X*X*X&X;X{.sXsX'.`.7X,X5XsX%X'.{.&X5X:XsX7X'.[.iX:X",
"yX5X{.:X&X5X7X`.$XyX9X;X,X'.`.;XsXsX`.`.7X&X:X&X8XsX%X$X:XqX'.%XsX:X'.&X$X$X&X`.",
"`.'.sX5X`.;XsX%X_.;XsX%X_.;XyX7X%X%X,XqX`._.iXsX{.%X%X'.7X7X9X5X{.&X{.{.sXsX'.:X",
"`.'.eX7X%X;X;X%X:X7X&X%X%X%XyXiX'.`.qXiX[.&X:X7X'.`.qXiX{.'.tX8X`.$XsXqX{.{.yXsX",
"iXsX'._.qXsX{.`.5XsX;X`.5XsX%X'.;X6X%X[.sXsX`._.eX9X;X,X&X;X[.[.eX5X;X,X{.[.5X%X",
"sXsX{.`.,XyX&X{.*XqX,X{.*XyX;X_.:XsX%X_.yXqX{.'.yXsX'.`.tXyX'.'.sXeX_.'.sXsX`._.",
"`.`.qXsX%X_.:XsX,X`.[.sX,X_.&XyX*X{.,XeX`.`.sXsX'.'.7X5X%X$XeXeX'.[.7X5X&X&X,XqX",
"`.`.iXsX'.`.9XsX$X`.,XsX%X`.7XsX{._.eXsX`.`.sXiX`.'.iXyX'.'.yXyX'.'.iXsX`.`.iXsX"
};
