/* XPM */
static char *dc051e83a53a4e3ab6f5112ab0d940b5IQnRTxFKeHC29Hz5[] = {
/* columns rows colors chars-per-pixel */
"40 40 218 2 ",
"   c #131313",
".  c #1D1D1C",
"X  c #2E2E2D",
"o  c #353434",
"O  c #2E536E",
"+  c #35667A",
"@  c #494948",
"#  c #51504F",
"$  c #545352",
"%  c #605F5E",
"&  c #62615F",
"*  c #435D6C",
"=  c #516E7A",
"-  c #666564",
";  c #6D6C6B",
":  c #71706E",
">  c #737372",
",  c #777978",
"<  c #7D7C7A",
"1  c #807F7D",
"2  c #82807F",
"3  c #1E4F88",
"4  c #1E5A92",
"5  c #204C84",
"6  c #245486",
"7  c #245C91",
"8  c #1E6195",
"9  c #1C639B",
"0  c #1C6A9C",
"q  c #366B8B",
"w  c #256597",
"e  c #246B9C",
"r  c #296C9B",
"t  c #336C9A",
"y  c #29739D",
"u  c #39789B",
"i  c #1D6CA2",
"p  c #1D74A5",
"a  c #1F77A8",
"s  c #1D7BAB",
"d  c #1F7EB0",
"f  c #226FA1",
"g  c #2374A4",
"h  c #2B76A2",
"j  c #257AA5",
"k  c #2B7BA5",
"l  c #2176A9",
"z  c #237CAB",
"x  c #2C7EAA",
"c  c #327BA2",
"v  c #3578A5",
"b  c #3C7BA3",
"n  c #207FB1",
"m  c #447587",
"M  c #567683",
"N  c #437496",
"B  c #6B7B81",
"V  c #477EA5",
"C  c #1C86B7",
"Z  c #1D93BD",
"A  c #2482AE",
"S  c #2E87AB",
"D  c #2B83AD",
"F  c #3683A5",
"G  c #3B83A5",
"H  c #3484AB",
"J  c #3B85AB",
"K  c #3689AD",
"L  c #3C8AAC",
"P  c #3790AF",
"I  c #2384B1",
"U  c #2B85B2",
"Y  c #248AB5",
"T  c #2C8AB2",
"R  c #268CBB",
"E  c #2D8DB9",
"W  c #3287B3",
"Q  c #338CB3",
"!  c #3A8CB1",
"~  c #2A90B6",
"^  c #2492BC",
"/  c #2B93BC",
"(  c #3491B6",
")  c #3A92B5",
"_  c #3494BA",
"`  c #3C95BA",
"'  c #3499BC",
"]  c #3C99BB",
"[  c #59818D",
"{  c #51869A",
"}  c #688289",
"|  c #788689",
" . c #6B8B94",
".. c #4786A6",
"X. c #438CAC",
"o. c #4B8DAB",
"O. c #558DA7",
"+. c #4B92AE",
"@. c #5293AE",
"#. c #5D99AE",
"$. c #438DB2",
"%. c #488BB2",
"&. c #4493B4",
"*. c #4B95B4",
"=. c #4C99B5",
"-. c #4296BA",
";. c #4A93BA",
":. c #459BBB",
">. c #4A9CBB",
",. c #539AB5",
"<. c #5B9CB4",
"1. c #5799B8",
"2. c #529DBB",
"3. c #6394A2",
"4. c #639EB6",
"5. c #48A1BD",
"6. c #54A2BD",
"7. c #5CA4BC",
"8. c #68A5BA",
"9. c #77A8B7",
"0. c #7DB1BC",
"q. c #1E97C1",
"w. c #2494C1",
"e. c #269BC5",
"r. c #379CC2",
"t. c #3DA2C4",
"y. c #3AA6C9",
"u. c #489EC0",
"i. c #579BC0",
"p. c #43A3C4",
"a. c #4AA4C4",
"s. c #48A9C5",
"d. c #43AACB",
"f. c #4BACC9",
"g. c #54A4C2",
"h. c #5CA4C2",
"j. c #54A9C5",
"k. c #5BAAC4",
"l. c #52ADC9",
"z. c #59ADC9",
"x. c #4EB2CE",
"c. c #54B2CE",
"v. c #5EB5CA",
"b. c #5CB4CC",
"n. c #43AED1",
"m. c #5CB8D3",
"M. c #62ABC4",
"N. c #68AAC4",
"B. c #71AFC5",
"V. c #63B3CC",
"C. c #69B5CB",
"Z. c #74B2C6",
"A. c #79B5C9",
"S. c #7BBACD",
"D. c #68BBD3",
"F. c #74BDD2",
"G. c #76BED4",
"H. c #71C2D3",
"J. c #79C3D7",
"K. c #858482",
"L. c #888888",
"P. c #8D8C8A",
"I. c #908F8C",
"U. c #93918F",
"Y. c #868E90",
"T. c #8B9496",
"R. c #959391",
"E. c #979897",
"W. c #9B9997",
"Q. c #9E9C9A",
"!. c #A09E9C",
"~. c #A2A19E",
"^. c #87B1BC",
"/. c #A6A4A2",
"(. c #A8A7A4",
"). c #AAA8A6",
"_. c #ADABA9",
"`. c #B0AEAC",
"'. c #B3B1AE",
"]. c #B6B4B1",
"[. c #B9B7B4",
"{. c #BBB9B6",
"}. c #BEBCB9",
"|. c #C1BFBC",
" X c #C3C1BE",
".X c #85B8C9",
"XX c #85BCCC",
"oX c #8BBED0",
"OX c #AEBDC0",
"+X c #90C2CF",
"@X c #8BC4D4",
"#X c #85C7D8",
"$X c #98C8D9",
"%X c #ADD3DC",
"&X c #B4D5DE",
"*X c #9DD5E3",
"=X c #ACD6E2",
"-X c #B8DBE2",
";X c #C6C4C1",
":X c #CBC9C6",
">X c #D1CECB",
",X c #D3D1CE",
"<X c #D6D4D0",
"1X c #D8D5D2",
"2X c #DCD9D6",
"3X c #DEDCD8",
"4X c #E1DFDB",
"5X c #E4E2DE",
"6X c #C3DDE5",
"7X c #E9E6E3",
"8X c #EBE8E4",
"9X c #ECEAE6",
"0X c #F1EEEB",
"qX c #F4F1ED",
"wX c #F7F4F0",
"eX c #F9F6F2",
"rX c #FCF9F5",
"tX c #FFFCF8",
/* pixels */
"=.O.o.u J A.k w 7.J ` :.X.*.x K A.x g :.V.Q #.o.G F 4.%.w L >.*._ *.%.K F =.>.0 ",
"H 0.S @.6.` Q k 8.z z Y XXA -.a.) D U a.g U 9.&.F 8.) ` k =.) p Y M.-.z Z.( ) p ",
"b.2.h :.,.( 7.L J *.b b.g.k a.S Q 6.>.5.D l.b.b Q 7.W ] 1.F ! V 6.m.J U 6.U -.M.",
"z.$.O.>.f j @.&.j Q 6.7.&.<.p.g s h.T A F.z.6...6.k j ! ,.j D >.7.7.%.k.U a ! k.",
"r.v N N O.=.=.H T D >.>.v b p :.6.g.Y d ] s.K V q ..+.=.J T D ) 7.F ..0 Q u.k._ ",
"#X*.t @.z.@Xl Y &.h ( oX@.v %.s.=Xs -.9 z F.>...V j.&XA I Q c S Z.=...h k.=X` Q ",
"z._ A.g.r.H j _ 8.) :.6.( S.j./ $.a >.p.p.M.' S.M.^ *.g T 7.$.] 6.` F.C.w.1.p Q ",
"z ` 6Xz.E U ] >.r y w h L 6XV./ T r.&.9 e g T %X#X_ Q _ >.x w w e F $X@Xt.) / u.",
"&.8 H -XJ.,.7 5 w H U o.w x -X#Xg.r 4 x U *.e 0 $X*X:.t 5 7 k D X.w 0 $X*Xs.b 4 ",
"s.s i a.C.D g 7 6 O..Xa.s 9 {  .+ O O O | m q t $.V.` p w 6 u .Xz.U i ! V.>.s 9 ",
"b.l U H.p.H.t.:.c &.m.N.= Q.>X4X9X>X X,X4X4X<X[.W.!.} u :.F t x.J.E i V.p.#Xy.l.",
"/ Q p.#Xw.F.C.H t X.l.| eXtX5XP.< : < > $ ; R. X X9XI.- > + t l.d.I r.J.r.y.F.-.",
"^ T D.x.] 8.9...U ,.| qXtX`.~.(.R.(._./.L.2X`.R.# $ < ].].0XB .Xe.A s.m.d.w.d.i ",
"r.j.$Xd.j.^.<.Y z e _.tX(.~., W.,XtXrXrXR.tXtXeX(.tX0X_.~.tX0X= p.t.F.F.y.D.n C ",
"y.C.4.l =.^.J I ' = rXtXtX>X|.;XQ.U.].eX;X<XtXeX!.tX4X;X;X7XtX| t.C.k.$.U j.9 R ",
"XX+Xh ! C.#.L J * K.,XtX4X}.%       ).P.:XeXtXrX'.@ % ,XI.>X`.[.[ %X! j V./ k M.",
"+.Q h 1.,.+.*.T.; K.< }.3X|.~.R.R.3X)./.I.tXwX>   X 2 Q.(.0X>X$ - + h K A.K &.#X",
"X.W h k.J G = [.,XL.qX`.R.W._.'.,XtXtXeXtXtXtX2X~.tXtX7X1XW.~.Q.- B 0 k.D s p z.",
") ` _ :.o.D | ~.].8X7X; _.rXtXtXtXtXtX0X2XtXtXrXL.7XtX}.{.7XtXeX# = E >.H z x a.",
"1.B.~ S 8.7.M !.).>X> 3X7XQ.).qX9X;X XL.5X[.eXtXeXI.9XtXtX> 5X`., } T ( X.8.U r.",
",.X.y *.&.a.q ~.W.4XtXI.0XtXW.~.E.).9XR.<X<XqX>X|.R.'.;X,X2 (.(.L.J g o.H 6.U _ ",
"1.....c F A.X.* - 8XtX X$ K.- tXtX7X; L.I.~.|.Q.).,X`.!.> tXR.tX} J h K g 6.h.g ",
"K 0.&.o.6.) k g = 7XtXtXW.8X& U.;XtXR.tXtX0XP.|.; }.7XQ. X(.K.tXO B.j.I N.( U 9 ",
"s.8.h 2.7.:.=.X.@.E.tXtXrX1 (.tX}.@ o !.3X<X:XtXE.wX5X% @   ; qXm m.J U Z.) u.k.",
"D.=.O.] h z 7.Q h + qXtXtXqXK.3XtX X)._.- . o o         . @ W.7X[ V.$.u.z p -.g.",
"u.r N ..G K +.%.A H , rX8XeX9X).(.R.tXtXtXE.rX5XP.3X> ,X).- |.qXm H ..! ) U :.5.",
"b.,.r y 7.XXh A &.h F |  X2 ~._.eX]._._.|.K.9X<X|.rXI.P.K.~.tXtXM ,...4 _ =X:.K ",
"G.` 7.N.t.;.g ' 8.P >.Z.M ].P.< U.Q.7XtX9X:X].)./.Q._.:XqX[.0XwXY.` M.N.r.B.l Q ",
"I _ -Xf.U z ~ >.c c r k ! OX| ].P.2 2 2 2 _.~.1 R.;X|.U.1 4XP.eXT.F %XJ.e.! s u.",
"! f h.#XD.6.V w r k p ..e 2.@X3.| _.'.!.U.< > , 1 L.R.(.[.~.7XtXY.y a @XJ.s.1.h ",
"_ 0 i +XA.U 4 5 6 ..Z.) i 0 oXXXW 6 O Y.:XqX,X X].,X4X9XtXtXtX4Xm p 9 N.$X` e 3 ",
"D.s z c.j.x.] &.u <.D.D.z z c.s.c.f.:.! @.[ } E.).;X3X4X4X;XQ.[ J.E p s.p.F.y.a.",
"t.W r.F.q.#Xs.! w x b.s.W ' H.Z #Xd.k 8 f.b.Y U G.L { [ m q 4 f.m.Y U J.w.D.m.-.",
"Y D b.D.] 8.9.X.! Z.l.R U c.F.t.y.:.z C.D.^ l p.H.s.=.9.@.K <.F.w.p t.H.f.q.l.p ",
"t.5.#Xn.j.^.8.U z j k.t.5.#Xn.c.s.C s p g.d.] F.b.f.8.^.Q A j ,.f.] S.m.n.l.R C ",
"e.C..XT =.^.&.Y Y S 2.e.F.XXE p.` i ^ x s.e.v.Z.i.T 0.4.I R D =.e.b.C.h.Y D.0 C ",
"J.S.h k M.4.k k M.-.c J.S.g g z.z 0 D.:.i V.@XK 0 g.<...h :.k.h v.@XQ 0 a.E 0 >.",
"<.2.F 8.8.<.8..X+.w 9 2.6.F A.C.) S.F.p 4 ! A.G ,.A.8.,.XX<.h 4 W .XG &.$X) 7.$X",
"*.T y M.L ..A 6.9.A F =.Q 0 M.Y p T b.~ k ,.-.0 h.K o.j :.8.) j =.:.9 j.W z l c.",
"S _ T >...H S h.XXd.k.U ( S >.D p x C.t.V.Q ( A >.F K k >.A.f.M.Q ( I >.D z j M."
};
